<svg id="Layer_5" data-name="Layer 5" xmlns="http://www.w3.org/2000/svg" xmlns:xlink="http://www.w3.org/1999/xlink" viewBox="0 0 1200 423"><defs><style>.cls-1{fill:url(#linear-gradient);}.cls-2{fill:url(#linear-gradient-2);}.cls-3{fill:#f5fbfd;}.cls-3,.cls-8{fill-rule:evenodd;}.cls-4{fill:url(#linear-gradient-3);}.cls-5{fill:url(#linear-gradient-4);}.cls-6{fill:url(#linear-gradient-5);}.cls-7{fill:url(#linear-gradient-6);}.cls-8{fill:#ebf5fa;}.cls-9{fill:url(#linear-gradient-7);}</style><linearGradient id="linear-gradient" x1="1238.32" y1="64.16" x2="1233.5" y2="39.07" gradientTransform="translate(-267)" gradientUnits="userSpaceOnUse"><stop offset="0.02" stop-color="#bde0f5"/><stop offset="0.35" stop-color="#d4edf2"/><stop offset="0.57" stop-color="#e9f6f8"/><stop offset="0.81" stop-color="#f9fdfd"/><stop offset="1" stop-color="#fff"/></linearGradient><linearGradient id="linear-gradient-2" x1="557.96" y1="68.39" x2="559.5" y2="22.68" gradientTransform="matrix(-1, 0, 0, 1, 1538.44, 0)" gradientUnits="userSpaceOnUse"><stop offset="0.01" stop-color="#d4e6f5"/><stop offset="0.35" stop-color="#d4edf2"/><stop offset="0.57" stop-color="#e9f6f8"/><stop offset="0.81" stop-color="#f9fdfd"/><stop offset="1" stop-color="#fff"/></linearGradient><linearGradient id="linear-gradient-3" x1="1295.59" y1="87.46" x2="1295.75" y2="62.92" gradientTransform="translate(-267)" gradientUnits="userSpaceOnUse"><stop offset="0.01" stop-color="#d4ebed"/><stop offset="1" stop-color="#edf5fa"/></linearGradient><linearGradient id="linear-gradient-4" x1="2616.21" y1="107.52" x2="2612.59" y2="53.34" gradientTransform="matrix(-1, 0, 0, 1, 3712.85, 0)" gradientUnits="userSpaceOnUse"><stop offset="0" stop-color="#d7e3ed"/><stop offset="0.36" stop-color="#d9ebf7"/><stop offset="1" stop-color="#edf5fa"/></linearGradient><linearGradient id="linear-gradient-5" x1="545.87" y1="75.79" x2="553.2" y2="45.49" gradientTransform="matrix(-1, 0, 0, 1, 1538.44, 0)" gradientUnits="userSpaceOnUse"><stop offset="0.01" stop-color="#cfe8ff"/><stop offset="1" stop-color="#edf5fa"/></linearGradient><linearGradient id="linear-gradient-6" x1="2574.31" y1="90.27" x2="2573.2" y2="64.49" gradientTransform="matrix(-1, 0, 0, 1, 3712.85, 0)" gradientUnits="userSpaceOnUse"><stop offset="0.01" stop-color="#cfdeed"/><stop offset="1" stop-color="#edf5fa"/></linearGradient><linearGradient id="linear-gradient-7" x1="68.57" y1="20.22" x2="79.63" y2="-25.48" gradientTransform="matrix(-1.14, 0.13, 0.11, 0.98, 1135.11, 96.46)" gradientUnits="userSpaceOnUse"><stop offset="0.02" stop-color="#dcf0fa"/><stop offset="1" stop-color="#e6f7ff"/></linearGradient></defs><g id="Layer_2" data-name="Layer 2"><path class="cls-1" d="M1037.67,23.4s4.43-3,1.69-4.13-4.14.13-4.14.13,5-4.13.12-4.9-5.3,1.17-5.3,1.17.08-4-5.19-3-5.85,2.19-5.85,2.19a4.47,4.47,0,0,0-5.09-.51c-2.86,1.54-1.84-5.94-7.23-4.39s-6.58-1.27-6.58-1.27,3.38-6.69-3.7-6.05S986.26,14.5,986.26,14.5s-1.71-2.31-5.74.26-4,3.35-4,3.35-4.18-1.8-4,2.33-.14,4.25-.14,4.25-1.4-3-4.27-.65l-2.87,2.33s.2-3.88-3.35-3.49-3.7,1-3.7,1-2.75-2.57-6.6-.13-2.74,4.64-2.74,4.64a5.42,5.42,0,0,0-5.59-1.15c-3.12,1.29-3.13,2.06-3.13,2.06s-6.14-1.54-7.92,1.55-.3,3.61-.3,3.61-.33-1.43-3.17.77a21.45,21.45,0,0,0-3.09,2.57s1.66-4-1.73-4.37a19.06,19.06,0,0,0-4-.27s5.37-4.38,2.12-5.4-4.39-.14-4.39-.14,3.39-4-1.35-3.22-5.17,2.71-5.17,2.71-5-2.2-6.36,1.67.54,4.77.54,4.77a5.42,5.42,0,0,0-4.94,1.68c-2.09,2.32-.73,3.35-.73,3.35s-.47-2.19-4.87-1.55-5.84,2.2-5.84,2.2,1.57-3.62-2.59-3.36-7.32,1-5.87,2.32-4.74.78-4.13,3.74-3-.77-5,2.06-10.29.13-9,2.83-5.65-.12-5.46,3.36,7.29-.13,7.29-.13.25,1,3.72,1,5.22-.78,4.29-2.33,1.6.64,5.41.52-1.79,2.44,1.74,3.61,9.83,3.31,10.16,1.12c.19-1.37,1.71,1.77,3.77,2.67,1.23.53,2,.42,3.09,1.19a21.11,21.11,0,0,0,7.8,2.47c25.68,2.08,143.47,8.27,178.81,4.25,1.44-.17-2.1-3.46-7.27-3.56,1-1.36-5.9-3.26-4.6-3.59,2-.53,3.26-1.09,3.64-1.71,5.47.5,5.87-4.58.95-5.36,1.26-.37,1-3.16-2.14-2.58-.91-.79-.68-1.93-2-1.77-2.9-1.73-3.88,1.33-5.27,1-2-.56,1.32-3.34-4.08-3.23-4.68.08-.63-3.62-4.85-3.1s-5.32.52-5.32.52,3.35-2.33.63-3.61a4.86,4.86,0,0,0-4.55-.13s1.41-2.84-1.25-3a8.86,8.86,0,0,0-3.53.25s4.3-4.51,1.6-5.15-3.55-.39-3.55-.39S1047.25,22.88,1037.67,23.4Z"/><path class="cls-2" d="M1037.32,40.79c.51,0,1.67-1.82-1.7-3.51.31-2.67-1.79-4-5.39-2.69-4-1.75-5.18.95-5.27,1.24,0,0,2.43-3.88-.66-4.18s-3.28.62-3.28.62.11-2.33-3.06-1.4-3.39,2.17-3.39,2.17a4.09,4.09,0,0,0-5.38-.77c-3.34,1.86-3.58,2.32-3.58,2.32a20.63,20.63,0,0,0-4.14-3.25c-2.56-1.56-5-1.08-7.52,1.39s-2.26,2.94-2.26,2.94-2.53-4.33-5.55-2.48a20.15,20.15,0,0,0-3.24,2.17,3.68,3.68,0,0,0-4.1-2.63,22.39,22.39,0,0,0-4.71.78s3.06-2.95.83-3.73-3.85-1.39-3.85-1.39,5.36,0,2.93-3.1-4.89-2.63-4.89-2.63,4.6,2.48,6.89-.63.85-5.57,3.32-5.26,8.7.78,7.5-2.16A5.12,5.12,0,0,0,983,11.35s7,2,7.35-1.39a15.76,15.76,0,0,1,.82-4.5s8.94-2.32,5.24-2.79S985.87,5,985.87,5s-5.29-1.23-7.14,2a29,29,0,0,0-2.21,4.34s-2.77-3.87-4.62-.62a13.86,13.86,0,0,0-1.89,6s-5.49-.15-5.4,2.79a10.74,10.74,0,0,0,.57,3.87,29.61,29.61,0,0,1-5.59-1.4c-3.88-1.23-4.08,2.49-4.08,2.49s.07-3.88-3.36-3.26-3.6,2.48-3.6,2.48A2.52,2.52,0,0,0,944.76,22c-3.1,1.4-3.23,3.88-3.23,3.88A10.09,10.09,0,0,0,936,27.77c-2.38,1.86-2.21,2.63-2.21,2.63a6.4,6.4,0,0,1-4.79.31c-2.36-.93-2.7-.77-3.91,1.56a15.43,15.43,0,0,1-1.4,2.47S923.24,31,920,31.49s-3.4,1.39-3.4,1.39S914,29.63,911,31.8s-4,2-3,4.34-6.87,2.17-5,4.8,2.66,2.79,2.66,2.79,5-.46,7.78-2,1.94-4.65,3.79-2.64,9.19,3.26,10.62.62,3.59-5.89,5.48-3.25,1.93,1.54,5.89,2.32,8.54-.93,7.19-3.1,7.93,4.19,8.17,1.09,2-5.73-1.09-6.2,4.33-3.87,4.9-.93S955.49,36,960,35.36s4.34,2.17,4.34,2.17-2.83,4.34,1.1,5.27a24.56,24.56,0,0,1,6.31,2.89c1.49.87-3.56,1.09-2.51,1.36.28.07-3.65,2.23-.16,3.19,2.93.8-7.53,3.42-1.93,4.42,1.69.31-2,.26-4.3,1.22-2.58,1.11-11.73,5-8.94,5.27,19.23,1.9,97.44,9,89.75,2.1,16.82,2.45,16.53-2,6.35-7.26,5.75-.57,4.92-2.48.52-5,.19-2.23,1.75-6.52-3.6-4.37.19-2.67.39-5.69-4.72-3.28C1042.5,40.41,1040.86,39.56,1037.32,40.79Z"/><path class="cls-3" d="M1139.55,65.62s5.87-1,7.54,1.12,2.35,2.23,2.35,2.23,2.65-2.11,9,.5,4.28,5.71,4.28,5.71,4.36-3.6,7.64.12c4.64-2.34,8.58-.5,9.5,3.11,8.21,1.54,7.63,5.78,1.84,5.16,3.15,2.53-.31,2.77-6,2.71l-4.91-.08c-3.48,0-4,1.47-7.35,1.88-1.41.17-6.33-1.17-8.18-1.06s-.07,2.77-2.27,2.82c-2.67.06-9.41-2.5-12.25-2.53s3.14,2.2.65,2.76c-14.05,3.17-20.2.82-22.54-.12-5.28-2.1-26.6-4.84-38-4.59s-31.76.86-38.93-.62-86.43-5.67-36.18-14.81c-18.79-1.74-46-4.53-30.94-15.55-12.36-1-27.25-3.9-18.7-7.13s12.25,2.64,12.25,2.64a8.29,8.29,0,0,1,7.28-4.73c2.16-3.55,5.14-.52,5.14-.52s1.21-2.11,4.36-1.49,2.74,1.12,2.74,1.12.59-1.74,3.62-.74,1.6,1.61,1.6,1.61.67-1.24,3.69-.25.71,2.11.71,2.11,2.24-1.61,3.37,0-2.1,2.61-2.1,2.61,2.66-.75,4,.87-1.53,2.36-1.53,2.36,2.35-1.25,3.39.62a2.2,2.2,0,0,1-.78,3,9.21,9.21,0,0,1,5.91.24c2.94,1.24,2.85,1.49,2.85,1.49s-2.95-1.86.07-3-4.1-2.73-1.26-4.71,5-1.37,5-1.37-2.25-3.23,2-3.85,4.72.25,4.72.25.28-3.6,5.72-3.35,4.08,2.11,4.08,2.11,2.33-.49,1.8,1.74a3.47,3.47,0,0,1-2.58,2.61s3.52-1.16,4.3-.62l3.82.74s-2.93-1.24-1.26-2.61a7.76,7.76,0,0,1,4.51-1.24s-.46-2.85,6.11-3.1,7.71.62,7.71.62-2.27-.37.88-1.86,5.26-.62,5.26-.62-3-3.23,1.17-4.1,6.35.37,6.35.37-.13-3.1,3.74-2.48,4,.87,4,.87-1.35-2.36,2.29-2.48S1085,33,1085,33s3.24-1.74,5.7-.5.95,2.11.95,2.11a2.19,2.19,0,0,1,3.05-.5c1.74,1.24-.85,2.48-.85,2.48s2.5,1.12-.66,2.61,2.66-.74,5.13-.25-3.48-1.73-.54-2.6a8.8,8.8,0,0,1,5.63.37s3.76-1.86,5.13-.25-.24,2.11-.24,2.11,4-1.74,5.84-.25S1112.7,41,1112.7,41s3-.49,4.78.75-1.24,3.6-1.24,3.6,4,.12,5.44,2.36-2.2,3.6-2.2,3.6,6.66-.5,8.23,2.6-3.16,3.6-3.16,3.6,3.77-.49,3.38,1.37a2.8,2.8,0,0,1-1.73,2.23,4.41,4.41,0,0,1,3.84,0c2.06,1-1,3-1,3a3.52,3.52,0,0,1,3.11.74c1.49,1.25,1.37,1.62,1.37,1.62S1135,63.51,1139.55,65.62Z"/><path class="cls-4" d="M1032.57,49.91a4.88,4.88,0,0,1,5.68.25c2.84,2.24,3.23,2.48,3.23,2.48s-.23-2.11,3.72-1.73,3.49,1.73,3.49,1.73a3.66,3.66,0,0,1,2.8,1.62c1.13,1.61,0,2,0,2a8.14,8.14,0,0,0-5.44-.24,26.32,26.32,0,0,0-3.11,1.36s-3.81.62-3.21,2.36,4.11-1.49,5,0a3.56,3.56,0,0,1,.45,2.85,5.19,5.19,0,0,1,4.78-2.73c3.28.25,1.68,2.11,1.68,2.11s2.73-2.36,5.06-.74-2.31,3.23-2.31,3.23.41,1.61-3.69,2.35-3.51,1.12-3.51,1.12,2.66-.74,3.91.5,6.2.12,6.2.12,4.58-.74,3.5,1-1.64,2-1.64,2A2.66,2.66,0,0,1,1063,71c2.37,1.48.28,2,.28,2s4.61-2.23,7.15-1.24,2.36,2.24,2.36,2.24-4.1-2.11-5.83.86c1.31-2.19-7.06-2.34-8.06,1.12-4-.87-5.19-1-7.62.5s-6.52,1.49-8.49.24-5.79-.62-8.31,1.12c-2.91-1.75-7.27-.06-7,1.49-5.29-2-11.33,1.38-9,3.51-1.33,2.41-5.69,2.65-6.69-.48-8,2.16-17.19-1.87-27.31-2.71,1.2-2.11,15.16-5.78,9-8.23,8.1-5.93,13.16,2.21,16,1.09s7.95-1.1,7.32.76c3.49-.14,2.79,2,2.79,2a5.08,5.08,0,0,1,5.31-1.49c3.55.86,3.42,1.24,3.42,1.24s.57-2.36,4.44-1.74,1.69-.75,5.17-.37,4.15.49,4.15.49,2.6-2,4.19-1,4.6-.12,4.6-.12.4-1.87-4.09-1.37-5.94.5-5.94.5.49-2.11-4.25-1.62-5.38,1-5.38,1-.8-1.87-3.7-1.12a12.92,12.92,0,0,0-2.94.87,5.06,5.06,0,0,0-4.79-.75,13.32,13.32,0,0,1-3.7,1s-.93-1.49,2.08-1.87A12.68,12.68,0,0,0,1022,68s-.88-1.62,2.35-1.25,3.5,1,3.5,1,1-2.11,4.07-1.37,3.42,1.24,3.42,1.24,1.08-1.73,3.7-1,3,1.12,3,1.12-3.68-1.86-.31-2.61a26.22,26.22,0,0,1,4.34-.74s-7.66.62-7.3-1.12-.32-1.86-.32-1.86-5.53,2.11-5.8.12,2.74-3.1,2.74-3.1-5.69.5-8.1-.87a1.76,1.76,0,0,1-.37-3.1A9.9,9.9,0,0,1,1021,55c-3.35-.74-5.28-2.11-2-2.73s3.87-.74,3.87-.74-6.41-.25-3.45-1.86,4.82-.75,4.82-.75-3.88-2-.39-2.36,3.63.62,3.63.62-5.2-3.72-1-3.35,6.2.13,6.33,1.86-3.91,3-3.91,3A2.76,2.76,0,0,1,1032.57,49.91Z"/><path class="cls-5" d="M1098.34,37.68s3.6,0,3,1.62-.64,1.86-.64,1.86,0-1.49,2.4,0,1.18,2.85,1.18,2.85,1.07-1,4.15-.87S1110,45,1110,45s.51-3.6,3.62-2.86,2.07,2.36-.08,3.72-1.69,2.11-1.69,2.11,4.13-2.23,5.77,0-.8,3.73-.8,3.73,5.62-1,7.35,2.36-2.12,4.09-2.12,4.09,2.73,1.12,1.13,3,2.66-.74,3.7,1.12-1.63,3.35-1.63,3.35,1.36-1.86,5.13-.25,3.35,2.11,3.35,2.11,3.19-3,5.8-1.49.13,3.11.13,3.11a4.05,4.05,0,0,1,3,1c1.5,1.24-1.16,2-1.16,2s-3.07-2.23-5.75-.74a15.61,15.61,0,0,1-4,1.74,5.87,5.87,0,0,1,4.76.12c2.22,1.24,3.43.5,3.43.5a4.24,4.24,0,0,1,4.35-.75,21.13,21.13,0,0,1,4.6,2s-2.14-2.86,1.5-3a7.45,7.45,0,0,1,5.79,2.73,4.39,4.39,0,0,1,4.26.87c1.8,1.74,2.87-1.36,7.26,1.24.88.53,4.6.93,1.88,2.66,2.11.7,9-2.61,9,.85,2,.8,7.75,1.77,2.93,3.84,2,.9.67,1.45-6.24,0,2.72,2.21-5.69,1.11-8.58,1.58,1.89.71.76.54-3.35,1.1,3.37,1.24-5.94,2.41-5.24.94-1.1.08-6.5-1.49-5.24.75s-10,1.66-11.51-.12c-1.76,3.43-31,4.55-28.57,2.39-.81,4.57-26.91,3-35,4.08s-26.43-2-33.84-2.16-17.72-2-22.66-1.58c-11.53.87-10.5-3.24-2.46-3.72,0,0,.34-4.1,6.93-4.52-2.67-3.14,4.23-2.91,9.22-2,1-3.94,9-4.72,6.91-.63,2.77,1,4.39-4.09,7.32-.63,6.7-2.2,4.19,2.67,4.19,2.67a9.78,9.78,0,0,1,3.56,1.89c1.25,1.25,3.8-1.54,8.87-.92a29.49,29.49,0,0,0,7.89.12,13.65,13.65,0,0,1,5.85-.61c-2.26-3.87-7.74-.88-7.74-.88s-4.19,1-6.77.12-8.13-1.48-3.09-1.48,2.73-2.36,6.15-1.12,3.58.74,3.58.74.33-2.35,4.4-1.61l5.43,1s-2.54-3.1,2.53-2.48,5.66,1,5.66,1-2.58-3,1.83-3.22,8.35.86,6.48,2.11,1.79-3.11,5.13-2.36,1.92,2.11,1.92,2.11-3.51,1.12-1.47,1.49,4.17-2.36,5.78-.75.27,2,.27,2,8.76.37,6.63-1.12-3.73-3.1.11-3.1,4.53,1.49,4.53,1.49-3.1-2.86.79-3a15.64,15.64,0,0,1,6.38,1s-2.91-2.73-.26-2.73-4.31-.74-2.6-2.23.7-2.73-3.09-1.49-4.24,1.86-4.24,1.86-1.28-1.86-5.27-.75-4.06,2.73-4.06,2.73a4.4,4.4,0,0,0-4.35-.62,15.34,15.34,0,0,1-4,1.12s-.34-2.48,3.46-2.36,4.18-1,4.18-1-1.24-2,2.24-1.61,4.89-.25,4.89-.25-7.74-1.24-4.61-2-.17-3-3.88-2-3.07-.13-7.44,0-5,2.73-5,2.73-.93-1.49-4.64-.5-3.87,1.49-3.87,1.49-2-2,1.82-2.48,4.7-1.12,4.7-1.12-3.29-1.61-.13-3.1a11.42,11.42,0,0,1,5-1.37s-6.71-.74-5.43-2.36,4.32-2.11,4.32-2.11l2.67.62a5.58,5.58,0,0,1,5.16-1.73c3.43.49,3.94,1.11,3.94,1.11s1.66-2.73-1.66-2.85-4.58.74-4.58.74,1.32-1.73-2.32-1.61-3.24,1.74-3.24,1.74-5.07-.62-5,1.24-1.12,1.86-1.12,1.86a5.66,5.66,0,0,0-5-.74c-2.74,1-2.32,1.86-2.32,1.86s-3-.38-4.75,1.24-4.26,2.61-2.81,4-1.72,2.23-1.72,2.23-4.36-.62-6.35,1a22.68,22.68,0,0,1-2.28,1.74s-2.65-1.37.33-2.36,2.52-1.74,2.52-1.74-8.88,1.36-8.32-.25,4.72-1.86,4.72-1.86l1,1.24a4.23,4.23,0,0,1,4.08-1.36c2.43.62,3,.37,3,.37a29.26,29.26,0,0,0-6.66-3c-3.5-1,0-2.11,3.27-1.12s-2.23-.5,1.2-2.11a16.51,16.51,0,0,1,7.2-1.36s-4.48-.25-7-1.86,3.64-3.61,5.81-2.24a7.91,7.91,0,0,0,5,.87s-6.83-2.48-3.28-3.72,5,0,5,0,2.14-2.74,5-1.37-.26,2.85-.26,2.85a2.37,2.37,0,0,1,3,.25c1.69,1.37-2.61,2-2.61,2s-7.15,1.24-5.46,2.61-4,.37-4,1.73-.55,1.62-.55,1.62a12.18,12.18,0,0,1,5.92-1.87c3.69-.24-.15-2.35,4.22-2.48s4.38-.87,4.38-.87.78-3,4.5-2.6a22.55,22.55,0,0,0,4.23.25s1.49-2.24,2.71-.87,4.58.62,4.58.62,1.32-1.74-1.56-1.74-5.24-.12-5.24-.12,3.2-1.62.51-1.49-3.13-1.37-4.52-.13-1.15,1.24-1.15,1.24,2.21-2.23-1.19-2.11-4.44-.37-4.44-.37,7.09-.37,6.8-1.61-3.3-.87-3.3-.87-6.23-.75-6.9.49-4.07,1.37-4.07,1.37,3.84-1.37.88-1.86a21.36,21.36,0,0,0-4.67-.37s5.63.37,5.55-1.49-3.85-1.37-3.85-1.37,2.73-.25,1.25-2.23a3.1,3.1,0,0,0-3.79-.87s1-1.61,4.78-.62.36-1.74,2.94-.87,1.26,2.6,1.26,2.6-.43-2.23,2.68-1.48,4.05,1.48,1.07,2.48,2.07.25.19,2.23-.82-1.11,3.45-.25S1094.86,37.31,1098.34,37.68Z"/><path class="cls-6" d="M1005.78,69.93s6.35-1.77,3.22-3.14-1.23-1.39-1.23-1.39,6.39-.34,3.91-2.21-3.55-.87-3.55-.87,3.8-1.65.46-2.73c-2.67-.86-3.86.75-3.86.75s3.94-2.36.22-2.73a21.11,21.11,0,0,0-5-.13s6.06-1.44,3.5-3.06a6.13,6.13,0,0,0-5.51-.16s5.29-2.11.83-3.1-5.81.12-5.81.12,4.3-2.73,0-2.86-5.91,1.12-5.91,1.12a13.56,13.56,0,0,0-8.35-2.2c-7-4.26-7.62,0-7.62,0A31.29,31.29,0,0,0,964,50.72c4.66-.06,8.09-.24,10.88,3.66,3.56-.6,8.11.25,2.8,2.65,4.92-.18,1.31,2.36,4.8,3.19,2-.21,6.74-2.73,5.1.13,8-2.17,2.82.89,3.62,1.59,1.07.94,7.93,2.31.88,3.21,3.31,1.17-1.14,1.51-2.36,2.08,1,.4,4.76.35,3,1.72,8.43-1.6,3.25,2.16,5.34,2.58S1002.58,71.68,1005.78,69.93Z"/><path class="cls-7" d="M1142,70.14a8.21,8.21,0,0,1,5.81.14c2.9,1.3,3.3,1.44,3.3,1.44s-.24-1.22,3.8-1,3.56,1,3.56,1a5.13,5.13,0,0,1,2.87.94c1.16.93,0,1.15,0,1.15a14.23,14.23,0,0,0-5.55-.14c-2.56.57-3.19.79-3.19.79s-3.9.36-3.28,1.37,4.21-.87,5.16,0a1.31,1.31,0,0,1,.47,1.65,6.22,6.22,0,0,1,4.88-1.58c3.35.14,1.72,1.22,1.72,1.22s2.79-1.37,5.17-.43-2.37,1.87-2.37,1.87.42.94-3.77,1.37-3.58.65-3.58.65,2.72-.43,4,.29,6.34.07,6.34.07,4.68-.43,3.57.57a4.66,4.66,0,0,1-1.68,1.15,4.09,4.09,0,0,1,3.86-.28c2.43.86.29,1.15.29,1.15s4.71-1.3,7.3-.72,2.41,1.3,2.41,1.3-4.18-1.23-6,.5c1.34-1.27-7.22-1.36-8.25.65-4.11-.51-5.29-.58-7.78.29a16.24,16.24,0,0,1-8.68.14c-2-.72-5.92-.36-8.49.65-3-1-7.43,0-7.16.86-5.41-1.18-11.58.8-9.18,2-1.36,1.4-5.82,1.53-6.84-.28a129.57,129.57,0,0,1-26.64,1.11c1.24-1.22,13.53-3.4,7.19-4.81,8.28-3.45,14.16-1.37,17-2s8.14-.63,7.49.45c3.57-.08,2.85,1.14,2.85,1.14s1.81-1.37,5.43-.87,3.49.72,3.49.72.59-1.37,4.54-1,1.74-.43,5.29-.21,4.24.29,4.24.29,2.66-1.16,4.28-.58,4.71-.07,4.71-.07.4-1.08-4.19-.79-6.06.28-6.06.28.49-1.22-4.35-.93-5.5.57-5.5.57-.82-1.08-3.78-.64a22.69,22.69,0,0,0-3,.5,8.27,8.27,0,0,0-4.89-.43,23.1,23.1,0,0,1-3.79.57s-1-.86,2.13-1.08a20.73,20.73,0,0,0,4-.5s-.91-.94,2.4-.72,3.58.58,3.58.58,1-1.23,4.16-.8,3.49.72,3.49.72,1.1-1,3.79-.57a13.25,13.25,0,0,1,3,.65s-3.76-1.08-.31-1.52,4.44-.43,4.44-.43-7.83.36-7.47-.65-.33-1.08-.33-1.08-5.65,1.23-5.93.08,2.81-1.8,2.81-1.8-5.83.28-8.29-.51-.38-1.8-.38-1.8a17.24,17.24,0,0,1-6.06.29c-3.43-.43-5.4-1.22-2-1.58s4-.44,4-.44-6.54-.14-3.52-1.08a9.79,9.79,0,0,1,4.93-.43s-4-1.15-.4-1.37,3.71.37,3.71.37-5.32-2.17-1-2,6.34.07,6.46,1.08-4,1.73-4,1.73S1140.65,68.77,1142,70.14Z"/><path class="cls-8" d="M1085.9,93s-.22-3-3.84-2.72c-1.46-3.81-5.25.55-5.25.55s-.17-5.51-4.19-1.69c-3.33-4.65-8,0-8,0s-3.23-4.45-6.12-.51c-3.35,1.28-3.38,1.54-3.38,1.54s-2.12-4.07-4.47-.9c-4.46.61-4.92,1-4.92,1s-2.34-2-7.67-.77-5.91,2.49-5.91,2.49-4.91-2.12-9.69-.6-3.7,2.45-3.7,2.45a16.23,16.23,0,0,0-7.11-.57c-4.44.49.4-3.06-4.35-1.79s-6.79-1.47-8.43.43S996.65,94,996.65,94s-.76-1.84-3.91-.57-2.46,3.6-2.46,3.6,0-1.38-3.89.82-2.93,2.64-2.93,2.64-4.44,2-.06,2,1.08.92,7.7.64-1.59,1.52,6.13,1.9,4.15-1.22,11.55.07,15.8-.39,12.07-2.36,4.65,1,9.66.86c7.6,2.19,9.5-.78,8.47-2.09s6.41,3.72,16.25,2.58c-5.56,1.78,0,4.58,10.35,4.23-.09,3.56,7.15,2,8.91,2.07a46.59,46.59,0,0,0,4.79-.41c2.73-.32,3.16-2.56,10.12-1.45,10.94,1.76,8-1.36,11.87-2.15,6.4,1.46,5.06-1.07,7.25-1.62,9.55.12,9.15-2.77,8.45-3.86,10.27-1,12.69-7.21,6.3-8.71,4.93-3.56-1.61-4.54-8.71-3.59-3.13-3.77-9.75,1.42-9.75,1.42s2.56-2.85-2.88-2.41c-1.47-4.46-5.65,2.09-5.65,2.09s-5.61-3.37-5.12,2.48C1086.73,92.56,1088,94.67,1085.9,93Z"/><path class="cls-9" d="M1072,93.91s-3-3.43-4.37-.18c-1.49-2.81-6.72-2.19-6.31,1.25-3-4.92-6.23-.81-8.51-.49s-8.26-1.38-6.62,1.39-2.52.83-3.63,1.36a7,7,0,0,0-.7-4.19c-.45-.89-4.11,1.67-5,1.16-1.45-.81-.51-4.26-3.29-2.93a16.56,16.56,0,0,1-6.17,1.57c-4.2.26-7.16-.87-7.42,1.14a6.82,6.82,0,0,1-.6,2c-1,2.12-4.14-.86-6.49,2.48s-2.13-4.31-4.44-1.78-3.08-.79-4.64.18c-2.65,1.65-.21-3.75-4.76-2.48s-4.59-1.78-7.49.42-2.92,2.57-2.92,2.57a3.79,3.79,0,0,0-4.87-1.09c-3.07,1.51-5.68,3.5-2.55,4.68-14.58,3.39-8.53,4.6,1.79,4.72-3.15,3.36,7.62,1.34,10-1.06,2,.48,8.2,4.8,14,1.33,4.39,1.62,11.4.68,8.56-1.78s9.47,5.65,3.5-1.54c5,2.83,12.61,3.29,12.3,1.34s10.87,1,5-3.63c3.94,2,8.39,5.06,10.26,2.21s3.55,1.2,8.1.07c-3.18,2.76,3.94,2.4,9.76,5-2,3.1,14.36,3.77,14.16-.16s19.31,3.44,21.07-1.19,15.13.66,15.4-4c7.74-3.58,15-9.47,6.25-8.58-.95-5.32-5-.24-6.18-1-2-1.19-7-3.66-6.07-1.11-3.12-2.83-6,.77-4.75,2.39-5.31-3.92-8,.39-4.74,3s-.47.34-1.32.83-6.08-.72-3.61,1.8-2.12.84-3.34,1.21c-2.19.65-5.8-1.2-7.37,1.2s-3.46-3-6.45-.15c-6.52-.39.65-3-9-2.37.94-2.49,12.2-.81,9.73-2.22s5.92-4.22,6.79-1.35c1.53-4.31-2.93-5.28-5.34-2C1074.32,94.67,1077.12,91,1072,93.91Z"/></g></svg>